<svg width="464" height="515" viewBox="0 0 464 515" fill="none" xmlns="http://www.w3.org/2000/svg">
<path d="M443.978 4.55366C313.28 7.26635 142.398 7.71684 13 4.15216C31.0124 240.773 -60.7446 441.727 246.492 505C529.34 415.256 439.16 234.221 455.743 6.96276C459.251 1.48842 445.594 5.45463 443.978 4.55366Z" fill="white"/>
<path d="M281.98 273.85C295.16 289.72 251.1 545.01 313.71 478.12C430.74 421.47 455.87 385.09 454.73 274.26C453.67 274.02 282.7 274.92 281.98 273.85ZM15.16 274.26C5.93002 393.74 67.81 441.78 186.81 492.95C169.26 248.27 264.22 271.9 15.16 274.26ZM446.67 4.93999C219.5 9.28999 295.2 -25.72 281.98 181.19C463.44 164.58 458.51 246.99 454.72 40.87C451.54 22.58 465.35 2.58999 446.67 4.93999ZM15.47 180.77C219.74 185.55 188.57 203.45 187.49 6.32999C-23.21 5.67999 17.18 -28.65 15.47 180.77Z" fill="#C9232C"/>
<path d="M446.26 2.55999C313.62 5.32999 140.2 5.78999 8.88002 2.14999C27.16 243.77 -65.96 448.97 245.84 513.58C532.89 421.94 441.37 237.08 458.2 5.01999C461.76 -0.570012 447.9 3.47999 446.26 2.55999ZM452.63 42.92C547.39 682.89 -101.58 623.44 15.09 7.06999C136.66 10.96 322.11 10.05 447.08 7.49999C461.82 6.00999 449.05 26.25 452.63 42.91V42.92Z" fill="black"/>
<path d="M207.87 23.93C208.38 32.18 212.16 64.41 209.13 71.92C206.86 64.54 206.34 58.67 196.99 62.15C198.45 56.81 203.52 27.42 207.88 23.92L207.87 23.93ZM261.6 23.93C262.11 32.18 265.89 64.41 262.86 71.92C260.59 64.54 260.07 58.67 250.72 62.15C252.18 56.81 257.25 27.42 261.61 23.92L261.6 23.93ZM207.87 115.33C208.38 123.58 212.16 155.81 209.13 163.32C208.11 162.24 197.23 153 196.99 151.85C198.48 146.52 203.62 118.91 207.87 115.33ZM261.6 115.33C262.11 123.58 265.89 155.81 262.86 163.32C261.84 162.24 250.96 153 250.72 151.85C252.21 146.52 257.35 118.91 261.6 115.33ZM234.39 69.28C234.9 77.53 238.68 109.76 235.65 117.27C234.63 116.19 223.75 106.95 223.51 105.8C225 100.47 230.14 72.86 234.39 69.28ZM207.88 338.6C208.39 346.85 212.17 379.08 209.14 386.59C208.12 385.51 197.24 376.27 197 375.12C198.49 369.79 203.63 342.18 207.88 338.6ZM261.33 338.6C261.76 346.85 265.1 379.1 262.17 386.59C259.9 379.21 259.38 373.34 250.03 376.82C251.57 371.3 256.37 341.99 261.33 338.6ZM207.88 434.19C205.75 436.71 217.12 477.96 205.37 471.14L207.88 434.19ZM261.61 434.19C259.48 436.71 270.85 477.96 259.1 471.14L261.61 434.19ZM234.4 386.05C234.91 394.3 238.69 426.53 235.66 434.04C234.64 432.96 223.76 423.72 223.52 422.57C225.01 417.24 230.15 389.63 234.4 386.05ZM234.4 291.16C234.91 299.41 238.69 331.64 235.66 339.15C234.64 338.07 223.76 328.83 223.52 327.68C225.01 322.35 230.15 294.74 234.4 291.16ZM43.21 187.9C43.72 196.15 47.5 228.38 44.47 235.89C43.45 234.81 32.57 225.57 32.33 224.42C33.82 219.09 38.96 191.48 43.21 187.9ZM99.03 187.9C99.54 196.15 103.32 228.38 100.29 235.89C99.27 234.81 88.39 225.57 88.15 224.42C89.64 219.09 94.78 191.48 99.03 187.9ZM155.09 189.13L167.27 225.71C158.71 232.8 156.33 241.15 152.21 224.96L143.97 224.55C145.53 219.2 150.31 192.48 155.09 189.13ZM126.94 220C127.45 228.25 131.23 260.48 128.2 267.99C125.93 260.61 125.41 254.74 116.06 258.22C117.52 252.88 122.59 223.49 126.95 220H126.94ZM71.12 220C71.63 228.25 75.41 260.48 72.38 267.99C70.11 260.61 69.59 254.74 60.24 258.22C61.7 252.88 66.77 223.49 71.13 220H71.12ZM314.63 187.9C315.14 196.15 318.92 228.38 315.89 235.89C314.87 234.81 303.99 225.57 303.75 224.42C305.24 219.09 310.38 191.48 314.63 187.9ZM370.45 187.9C370.96 196.15 374.74 228.38 371.71 235.89C370.69 234.81 359.81 225.57 359.57 224.42C361.06 219.09 366.2 191.48 370.45 187.9ZM426.27 187.9C426.78 196.15 430.56 228.38 427.53 235.89C426.51 234.81 415.63 225.57 415.39 224.42C416.88 219.09 422.02 191.48 426.27 187.9ZM398.36 220C398.87 228.25 402.65 260.48 399.62 267.99C397.35 260.61 396.83 254.74 387.48 258.22C388.94 252.88 394.01 223.49 398.37 220H398.36ZM342.54 220C343.05 228.25 346.83 260.48 343.8 267.99C341.53 260.61 341.01 254.74 331.66 258.22C333.12 252.88 338.19 223.49 342.55 220H342.54Z" fill="black"/>
<path d="M233.23 187.85C219.03 186.73 211.08 193.27 213.8 206.57C214.88 207.72 237.02 203.82 233.67 209.09C197.16 196.39 170.75 243.76 211.31 249.45C202.89 214.27 249.24 240.36 253.52 217.92C255.11 202.85 253.77 184.24 233.22 187.85H233.23ZM222.48 193.94C227.31 193.87 227.33 201.59 222.48 201.52C217.63 201.59 217.65 193.87 222.48 193.94Z" fill="url(#paint0_linear_103_105)"/>
<path d="M105.23 61.85C91.03 60.73 83.08 67.27 85.8 80.57C86.88 81.72 109.02 77.82 105.67 83.09C69.16 70.39 42.75 117.76 83.31 123.45C74.89 88.27 121.24 114.36 125.52 91.92C127.11 76.85 125.77 58.24 105.22 61.85H105.23ZM94.48 67.94C99.31 67.87 99.33 75.59 94.48 75.52C89.63 75.59 89.65 67.87 94.48 67.94Z" fill="white"/>
<path d="M355.81 61.85C370.01 60.73 377.96 67.27 375.24 80.57C374.16 81.72 352.02 77.82 355.37 83.09C391.88 70.39 418.29 117.76 377.73 123.45C386.15 88.27 339.8 114.36 335.52 91.92C333.93 76.85 335.27 58.24 355.82 61.85H355.81ZM366.56 67.94C361.73 67.87 361.71 75.59 366.56 75.52C371.41 75.59 371.39 67.87 366.56 67.94Z" fill="white"/>
<path d="M256 209.09C257.07 218.09 254.91 230.62 243.58 230.52C173.17 221.63 240.13 312.99 253.52 251.97C252.44 250.81 230.32 254.73 233.66 249.45C240.24 249.42 257.09 249.47 263.45 249.45C281.48 246.45 278.73 202.44 255.99 209.09H256ZM244.83 257.02C249.68 256.95 249.66 264.67 244.83 264.6C240 264.67 239.98 256.95 244.83 257.02Z" fill="url(#paint1_linear_103_105)"/>
<path d="M374 331.09C375.07 340.09 372.91 352.62 361.58 352.52C291.17 343.63 358.13 434.99 371.52 373.97C370.44 372.81 348.32 376.73 351.66 371.45C358.24 371.42 375.09 371.47 381.45 371.45C399.48 368.45 396.73 324.44 373.99 331.09H374ZM362.83 379.02C367.68 378.95 367.66 386.67 362.83 386.6C358 386.67 357.98 378.95 362.83 379.02Z" fill="white"/>
<path d="M88.71 331.09C87.64 340.09 89.8 352.62 101.13 352.52C171.54 343.63 104.58 434.99 91.19 373.97C92.27 372.81 114.39 376.73 111.05 371.45C104.47 371.42 87.62 371.47 81.26 371.45C63.23 368.45 65.98 324.44 88.72 331.09H88.71ZM99.88 379.02C95.03 378.95 95.05 386.67 99.88 386.6C104.71 386.67 104.73 378.95 99.88 379.02Z" fill="white"/>
<path d="M411.145 87.6835V87.6738C407.618 71.3585 420.201 51.5373 405.677 52.9965M443.978 4.55366C313.28 7.26635 142.398 7.71684 13 4.15216C31.0124 240.773 -60.7446 441.727 246.492 505C529.34 415.256 439.16 234.221 455.743 6.96276C459.251 1.48842 445.594 5.45463 443.978 4.55366ZM281.98 273.85C295.16 289.72 251.1 545.01 313.71 478.12C430.74 421.47 455.87 385.09 454.73 274.26C453.67 274.02 282.7 274.92 281.98 273.85ZM15.16 274.26C5.93002 393.74 67.81 441.78 186.81 492.95C169.26 248.27 264.22 271.9 15.16 274.26ZM446.67 4.93999C219.5 9.28999 295.2 -25.72 281.98 181.19C463.44 164.58 458.51 246.99 454.72 40.87C451.54 22.58 465.35 2.58999 446.67 4.93999ZM15.47 180.77C219.74 185.55 188.57 203.45 187.49 6.32999C-23.21 5.67999 17.18 -28.65 15.47 180.77ZM446.26 2.55999C313.62 5.32999 140.2 5.78999 8.88002 2.14999C27.16 243.77 -65.96 448.97 245.84 513.58C532.89 421.94 441.37 237.08 458.2 5.01999C461.76 -0.570012 447.9 3.47999 446.26 2.55999ZM452.63 42.92C547.39 682.89 -101.58 623.44 15.09 7.06999C136.66 10.96 322.11 10.05 447.08 7.49999C461.82 6.00999 449.05 26.25 452.63 42.91V42.92ZM207.87 23.93C208.38 32.18 212.16 64.41 209.13 71.92C206.86 64.54 206.34 58.67 196.99 62.15C198.45 56.81 203.52 27.42 207.88 23.92L207.87 23.93ZM261.6 23.93C262.11 32.18 265.89 64.41 262.86 71.92C260.59 64.54 260.07 58.67 250.72 62.15C252.18 56.81 257.25 27.42 261.61 23.92L261.6 23.93ZM207.87 115.33C208.38 123.58 212.16 155.81 209.13 163.32C208.11 162.24 197.23 153 196.99 151.85C198.48 146.52 203.62 118.91 207.87 115.33ZM261.6 115.33C262.11 123.58 265.89 155.81 262.86 163.32C261.84 162.24 250.96 153 250.72 151.85C252.21 146.52 257.35 118.91 261.6 115.33ZM234.39 69.28C234.9 77.53 238.68 109.76 235.65 117.27C234.63 116.19 223.75 106.95 223.51 105.8C225 100.47 230.14 72.86 234.39 69.28ZM207.88 338.6C208.39 346.85 212.17 379.08 209.14 386.59C208.12 385.51 197.24 376.27 197 375.12C198.49 369.79 203.63 342.18 207.88 338.6ZM261.33 338.6C261.76 346.85 265.1 379.1 262.17 386.59C259.9 379.21 259.38 373.34 250.03 376.82C251.57 371.3 256.37 341.99 261.33 338.6ZM207.88 434.19C205.75 436.71 217.12 477.96 205.37 471.14L207.88 434.19ZM261.61 434.19C259.48 436.71 270.85 477.96 259.1 471.14L261.61 434.19ZM234.4 386.05C234.91 394.3 238.69 426.53 235.66 434.04C234.64 432.96 223.76 423.72 223.52 422.57C225.01 417.24 230.15 389.63 234.4 386.05ZM234.4 291.16C234.91 299.41 238.69 331.64 235.66 339.15C234.64 338.07 223.76 328.83 223.52 327.68C225.01 322.35 230.15 294.74 234.4 291.16ZM43.21 187.9C43.72 196.15 47.5 228.38 44.47 235.89C43.45 234.81 32.57 225.57 32.33 224.42C33.82 219.09 38.96 191.48 43.21 187.9ZM99.03 187.9C99.54 196.15 103.32 228.38 100.29 235.89C99.27 234.81 88.39 225.57 88.15 224.42C89.64 219.09 94.78 191.48 99.03 187.9ZM155.09 189.13L167.27 225.71C158.71 232.8 156.33 241.15 152.21 224.96L143.97 224.55C145.53 219.2 150.31 192.48 155.09 189.13ZM126.94 220C127.45 228.25 131.23 260.48 128.2 267.99C125.93 260.61 125.41 254.74 116.06 258.22C117.52 252.88 122.59 223.49 126.95 220H126.94ZM71.12 220C71.63 228.25 75.41 260.48 72.38 267.99C70.11 260.61 69.59 254.74 60.24 258.22C61.7 252.88 66.77 223.49 71.13 220H71.12ZM314.63 187.9C315.14 196.15 318.92 228.38 315.89 235.89C314.87 234.81 303.99 225.57 303.75 224.42C305.24 219.09 310.38 191.48 314.63 187.9ZM370.45 187.9C370.96 196.15 374.74 228.38 371.71 235.89C370.69 234.81 359.81 225.57 359.57 224.42C361.06 219.09 366.2 191.48 370.45 187.9ZM426.27 187.9C426.78 196.15 430.56 228.38 427.53 235.89C426.51 234.81 415.63 225.57 415.39 224.42C416.88 219.09 422.02 191.48 426.27 187.9ZM398.36 220C398.87 228.25 402.65 260.48 399.62 267.99C397.35 260.61 396.83 254.74 387.48 258.22C388.94 252.88 394.01 223.49 398.37 220H398.36ZM342.54 220C343.05 228.25 346.83 260.48 343.8 267.99C341.53 260.61 341.01 254.74 331.66 258.22C333.12 252.88 338.19 223.49 342.55 220H342.54ZM233.23 187.85C219.03 186.73 211.08 193.27 213.8 206.57C214.88 207.72 237.02 203.82 233.67 209.09C197.16 196.39 170.75 243.76 211.31 249.45C202.89 214.27 249.24 240.36 253.52 217.92C255.11 202.85 253.77 184.24 233.22 187.85H233.23ZM222.48 193.94C227.31 193.87 227.33 201.59 222.48 201.52C217.63 201.59 217.65 193.87 222.48 193.94ZM105.23 61.85C91.03 60.73 83.08 67.27 85.8 80.57C86.88 81.72 109.02 77.82 105.67 83.09C69.16 70.39 42.75 117.76 83.31 123.45C74.89 88.27 121.24 114.36 125.52 91.92C127.11 76.85 125.77 58.24 105.22 61.85H105.23ZM94.48 67.94C99.31 67.87 99.33 75.59 94.48 75.52C89.63 75.59 89.65 67.87 94.48 67.94ZM355.81 61.85C370.01 60.73 377.96 67.27 375.24 80.57C374.16 81.72 352.02 77.82 355.37 83.09C391.88 70.39 418.29 117.76 377.73 123.45C386.15 88.27 339.8 114.36 335.52 91.92C333.93 76.85 335.27 58.24 355.82 61.85H355.81ZM366.56 67.94C361.73 67.87 361.71 75.59 366.56 75.52C371.41 75.59 371.39 67.87 366.56 67.94ZM256 209.09C257.07 218.09 254.91 230.62 243.58 230.52C173.17 221.63 240.13 312.99 253.52 251.97C252.44 250.81 230.32 254.73 233.66 249.45C240.24 249.42 257.09 249.47 263.45 249.45C281.48 246.45 278.73 202.44 255.99 209.09H256ZM244.83 257.02C249.68 256.95 249.66 264.67 244.83 264.6C240 264.67 239.98 256.95 244.83 257.02ZM374 331.09C375.07 340.09 372.91 352.62 361.58 352.52C291.17 343.63 358.13 434.99 371.52 373.97C370.44 372.81 348.32 376.73 351.66 371.45C358.24 371.42 375.09 371.47 381.45 371.45C399.48 368.45 396.73 324.44 373.99 331.09H374ZM362.83 379.02C367.68 378.95 367.66 386.67 362.83 386.6C358 386.67 357.98 378.95 362.83 379.02ZM88.71 331.09C87.64 340.09 89.8 352.62 101.13 352.52C171.54 343.63 104.58 434.99 91.19 373.97C92.27 372.81 114.39 376.73 111.05 371.45C104.47 371.42 87.62 371.47 81.26 371.45C63.23 368.45 65.98 324.44 88.72 331.09H88.71ZM99.88 379.02C95.03 378.95 95.05 386.67 99.88 386.6C104.71 386.67 104.73 378.95 99.88 379.02Z" stroke="black" stroke-width="2" stroke-miterlimit="10"/>
<defs>
<linearGradient id="paint0_linear_103_105" x1="2.65623" y1="35.7201" x2="354.027" y2="298.977" gradientUnits="userSpaceOnUse">
<stop stop-color="#306998"/>
</linearGradient>
<linearGradient id="paint1_linear_103_105" x1="299.8" y1="354.152" x2="170.328" y2="188.479" gradientUnits="userSpaceOnUse">
<stop offset="1" stop-color="#FFE873"/>
</linearGradient>
</defs>
</svg>
